<?xml version="1.0" encoding="UTF-8"?>
<svg width="767" height="1181" viewBox="0 0 767 1181" xmlns="http://www.w3.org/2000/svg">
  <!-- Portrait version: 65mm x 100mm at 300dpi (767 x 1181 px) with 5mm bleed. Safe inset ~9mm (~106px). -->
  <defs>
    <pattern id="grid-back" width="60" height="60" patternUnits="userSpaceOnUse">
      <path d="M 60 0 L 0 0 0 60" fill="none" stroke="#E53935" stroke-width="1" opacity="0.05"/>
    </pattern>
    <style>
      @import url('https://fonts.googleapis.com/css2?family=Oxanium:wght@400;500;600;700&amp;family=Source+Code+Pro:wght@400;500&amp;display=swap');
      .logo-text { font-family: 'Oxanium', sans-serif; font-weight: 700; }
      .contact-label { font-family: 'Source Code Pro', monospace; font-weight: 400; }
      .contact-value { font-family: 'Oxanium', sans-serif; font-weight: 500; }
      .footer-text { font-family: 'Source Code Pro', monospace; font-weight: 400; }
    </style>
  </defs>

  <rect width="767" height="1181" fill="#1A1A1A"/>
  <rect width="767" height="1181" fill="url(#grid-back)"/>

  <!-- Accent bar on right -->
  <rect x="759" y="0" width="8" height="1181" fill="#E53935"/>

  <!-- Content scaled and positioned into safe area -->
  <g transform="translate(106, 140) scale(0.9)">
    <!-- Header with logo -->
    <g transform="translate(40, 40)">
      <rect width="65" height="65" fill="#E53935"/>
      <g transform="translate(12, 12) scale(1.7)">
        <path d="M14 18V6a2 2 0 0 0-2-2H4a2 2 0 0 0-2 2v11a1 1 0 0 0 1 1h2" fill="none" stroke="white" stroke-width="2" stroke-linecap="round" stroke-linejoin="round"/>
        <path d="M15 18H9" fill="none" stroke="white" stroke-width="2" stroke-linecap="round" stroke-linejoin="round"/>
        <path d="M19 18h2a1 1 0 0 0 1-1v-3.65a1 1 0 0 0-.22-.624l-3.48-4.35A1 1 0 0 0 17.52 8H14" fill="none" stroke="white" stroke-width="2" stroke-linecap="round" stroke-linejoin="round"/>
        <circle cx="17" cy="18" r="2" fill="none" stroke="white" stroke-width="2"/>
        <circle cx="7" cy="18" r="2" fill="none" stroke="white" stroke-width="2"/>
      </g>
      <text x="80" y="45" class="logo-text" font-size="38" letter-spacing="1">
        <tspan fill="#FFFFFF">M&amp;M</tspan><tspan fill="#E53935">_MOVING</tspan>
      </text>
    </g>

    <line x1="40" y1="130" x2="700" y2="130" stroke="#4A4A4A" stroke-width="2"/>

    <!-- Contact Information -->
    <g transform="translate(40, 170)">
      <g transform="translate(0, 0)">
        <g fill="#E53935">
          <path d="M17.66 28.79c3.84 7.54 10.02 13.7 17.56 17.56l5.87-5.87c.72-.72 1.79-.96 2.72-.64 2.99.99 6.21 1.52 9.52 1.52 1.47 0 2.67 1.2 2.67 2.67V52c0 1.47-1.2 2.67-2.67 2.67C28.3 54.67 8 34.37 8 9.33c0-1.47 1.2-2.67 2.67-2.67h9.33c1.47 0 2.67 1.2 2.67 2.67 0 3.33.53 6.53 1.52 9.52.31.93.05 1.97-.67 2.7l-5.86 5.87z" transform="scale(0.7)"/>
        </g>
        <text x="45" y="8" class="contact-label" font-size="18" fill="#A0A0A0" letter-spacing="1">PHONE</text>
        <text x="45" y="36" class="contact-value" font-size="26" fill="#E0E0E0">03 8820 1801</text>
      </g>

      <g transform="translate(320, 0)">
        <g fill="#E53935">
          <path d="M53.33 10.67H10.67c-2.93 0-5.31 2.4-5.31 5.33l-.03 32c0 2.93 2.4 5.33 5.33 5.33h42.67c2.93 0 5.33-2.4 5.33-5.33V16c0-2.93-2.4-5.33-5.33-5.33zm0 10.66L32 32 10.67 21.33V16L32 26.67 53.33 16v5.33z" transform="scale(0.7)"/>
        </g>
        <text x="45" y="8" class="contact-label" font-size="18" fill="#A0A0A0" letter-spacing="1">EMAIL</text>
        <text x="45" y="36" class="contact-value" font-size="26" fill="#E0E0E0">sales@m2mmoving.au</text>
      </g>

      <g transform="translate(0, 90)">
        <g fill="#E53935">
          <path d="M32 5.33C17.27 5.33 5.33 17.27 5.33 32S17.27 58.67 32 58.67 58.67 46.73 58.67 32 46.73 5.33 32 5.33zM29.33 53.2c-10.53-1.31-18.67-10.27-18.67-21.2 0-1.65.21-3.23.56-4.77L24 40v2.67c0 2.93 2.4 5.33 5.33 5.33v5.2zm18.4-6.77c-.69-2.16-2.67-3.7-5.07-3.7h-2.67v-8c0-1.47-1.2-2.67-2.67-2.67H21.33v-5.33h5.33c1.47 0 2.67-1.2 2.67-2.67v-1.09c7.81 3.17 13.33 10.83 13.33 19.76 0 5.55-2.13 10.59-5.6 14.37z" transform="scale(0.7)"/>
        </g>
        <text x="45" y="8" class="contact-label" font-size="18" fill="#A0A0A0" letter-spacing="1">WEB</text>
        <text x="45" y="36" class="contact-value" font-size="26" fill="#E0E0E0">m2mmoving.au</text>
      </g>

      <g transform="translate(320, 90)">
        <g fill="#E53935">
          <path d="M32 5.33c-10.31 0-18.67 8.36-18.67 18.67 0 14 18.67 34.67 18.67 34.67s18.67-20.67 18.67-34.67c0-10.31-8.36-18.67-18.67-18.67zm0 25.33c-3.68 0-6.67-2.99-6.67-6.67s2.99-6.67 6.67-6.67 6.67 2.99 6.67 6.67-2.99 6.67-6.67 6.67z" transform="scale(0.7)"/>
        </g>
        <text x="45" y="8" class="contact-label" font-size="18" fill="#A0A0A0" letter-spacing="1">LOCATION</text>
        <text x="45" y="36" class="contact-value" font-size="26" fill="#E0E0E0">Melbourne, VIC</text>
      </g>
    </g>

    <!-- Service Area -->
    <g transform="translate(40, 360)">
      <line x1="0" y1="0" x2="650" y2="0" stroke="#333333" stroke-width="2"/>
      <g transform="translate(0, 20)">
        <g fill="#689F38">
          <path d="M12 2C8.13 2 5 5.13 5 9c0 5.25 7 13 7 13s7-7.75 7-13c0-3.87-3.13-7-7-7zm0 9.5c-1.38 0-2.5-1.12-2.5-2.5s1.12-2.5 2.5-2.5 2.5 1.12 2.5 2.5-1.12 2.5-2.5 2.5z" transform="scale(1.1)"/>
        </g>
        <text x="32" y="16" class="footer-text" font-size="20" fill="#689F38" letter-spacing="0.5">Servicing Melbourne Metro &amp; Victoria</text>
      </g>
    </g>

    <line x1="40" y1="460" x2="700" y2="460" stroke="#333333" stroke-width="2"/>
    <text x="40" y="500" class="footer-text" font-size="18" fill="#666666" letter-spacing="0.5">
      ABN: 71 661 027 309  |  A subsidiary of Sharp Horizons Technology Pty Ltd
    </text>

    <!-- Decorative corner elements -->
    <path d="M0 0 L24 0 L24 3 L3 3 L3 24 L0 24 Z" fill="#E53935"/>
    <path d="M0 600 L24 600 L24 597 L3 597 L3 576 L0 576 Z" fill="#E53935"/>
  </g>
</svg>

